<svg width="50" height="66" viewBox="0 0 50 66" fill="none" xmlns="http://www.w3.org/2000/svg">
<path d="M48.9466 41.1993L27.5259 64.8399C27.1942 65.2072 26.8001 65.4986 26.3661 65.6975C25.9322 65.8964 25.4669 65.9987 24.997 65.9987C24.5271 65.9987 24.0619 65.8964 23.6279 65.6975C23.194 65.4986 22.7999 65.2072 22.4682 64.8399L1.04748 41.1993C0.376789 40.4591 -9.99404e-09 39.4552 0 38.4084C9.99404e-09 37.3616 0.376789 36.3577 1.04748 35.6175C1.71817 34.8773 2.62782 34.4614 3.57631 34.4614C4.52481 34.4614 5.43446 34.8773 6.10514 35.6175L21.4299 52.5303V4.26411C21.4299 3.21913 21.806 2.21695 22.4755 1.47803C23.1451 0.739122 24.0531 0.324005 25 0.324005C25.9469 0.324005 26.8549 0.739122 27.5245 1.47803C28.194 2.21695 28.5701 3.21913 28.5701 4.26411V52.5303L43.8948 35.6142C44.5655 34.874 45.4752 34.4581 46.4237 34.4581C47.3722 34.4581 48.2818 34.874 48.9525 35.6142C49.6232 36.3544 50 37.3583 50 38.4051C50 39.4519 49.6232 40.4558 48.9525 41.196L48.9466 41.1993Z" fill="white"/>
</svg>
